<svg width="205" height="59" viewBox="0 0 205 59" fill="none" xmlns="http://www.w3.org/2000/svg">
<path d="M203.094 52.1968C203.094 55.341 200.494 57.8878 197.279 57.8878H6.95615C3.74186 57.8878 1.13281 55.341 1.13281 52.1968V6.81272C1.13281 3.67002 3.74186 1.11426 6.95615 1.11426H197.277C200.494 1.11426 203.093 3.67002 203.093 6.81272L203.094 52.1968Z" fill="black"/>
<path d="M45.578 29.1822C45.5341 24.4283 49.5703 22.1155 49.7549 22.0078C47.469 18.7584 43.926 18.3144 42.6809 18.279C39.7052 17.9737 36.8187 20.0151 35.3029 20.0151C33.7568 20.0151 31.4225 18.3085 28.9067 18.3587C25.6692 18.4073 22.6406 20.2349 20.9795 23.0728C17.5515 28.8592 20.1081 37.3626 23.3925 42.0398C25.0354 44.3305 26.9551 46.8881 29.4679 46.7981C31.9263 46.6993 32.8446 45.27 35.8112 45.27C38.7506 45.27 39.6129 46.7981 42.1756 46.7406C44.814 46.6993 46.4751 44.4396 48.0605 42.1283C49.9591 39.5028 50.7216 36.9171 50.7518 36.7844C50.6898 36.7637 45.6279 34.8801 45.578 29.1822Z" fill="white"/>
<path d="M40.7369 15.2022C42.0591 13.59 42.9638 11.3967 42.7127 9.1709C40.799 9.2535 38.4057 10.4615 37.0275 12.0383C35.8082 13.4277 34.7189 15.7051 35.0003 17.8468C37.15 18.0032 39.3572 16.7893 40.7369 15.2022Z" fill="white"/>
<path d="M81.1567 46.4701H77.7211L75.8391 40.7043H69.2977L67.505 46.4701H64.1602L70.6411 26.8408H74.644L81.1567 46.4701ZM75.2718 38.2853L73.5699 33.1597C73.3899 32.6361 73.0525 31.403 72.5548 29.4619H72.4943C72.2961 30.2967 71.9769 31.5298 71.5382 33.1597L69.8665 38.2853H75.2718Z" fill="white"/>
<path d="M97.8237 39.219C97.8237 41.6262 97.1566 43.5289 95.8223 44.9257C94.6271 46.1692 93.1431 46.7901 91.3715 46.7901C89.4593 46.7901 88.0857 46.1205 87.2491 44.7812H87.1886V52.2373H83.9633V36.9755C83.9633 35.4621 83.9224 33.909 83.8438 32.316H86.6803L86.8603 34.5594H86.9208C87.9964 32.8691 89.6288 32.0254 91.8193 32.0254C93.5319 32.0254 94.9615 32.6847 96.1052 34.0048C97.2519 35.3264 97.8237 37.064 97.8237 39.219ZM94.5379 39.334C94.5379 37.9564 94.2202 36.8206 93.5818 35.9268C92.8844 34.9946 91.9479 34.5285 90.774 34.5285C89.9782 34.5285 89.2551 34.7881 88.6091 35.2999C87.9616 35.8161 87.5381 36.4902 87.3399 37.3251C87.24 37.7145 87.1901 38.0331 87.1901 38.2838V40.6438C87.1901 41.6734 87.5139 42.5421 88.1613 43.2516C88.8088 43.9611 89.65 44.3151 90.6847 44.3151C91.8995 44.3151 92.845 43.8578 93.5213 42.9463C94.199 42.0333 94.5379 40.8297 94.5379 39.334Z" fill="white"/>
<path d="M114.521 39.219C114.521 41.6262 113.854 43.5289 112.518 44.9257C111.325 46.1692 109.841 46.7901 108.069 46.7901C106.157 46.7901 104.783 46.1205 103.948 44.7812H103.888V52.2373H100.662V36.9755C100.662 35.4621 100.622 33.909 100.543 32.316H103.38L103.56 34.5594H103.62C104.694 32.8691 106.326 32.0254 108.519 32.0254C110.23 32.0254 111.659 32.6847 112.806 34.0048C113.948 35.3264 114.521 37.064 114.521 39.219ZM111.236 39.334C111.236 37.9564 110.916 36.8206 110.278 35.9268C109.581 34.9946 108.647 34.5285 107.472 34.5285C106.674 34.5285 105.953 34.7881 105.305 35.2999C104.658 35.8161 104.236 36.4902 104.038 37.3251C103.939 37.7145 103.888 38.0331 103.888 38.2838V40.6438C103.888 41.6734 104.212 42.5421 104.856 43.2516C105.504 43.9596 106.345 44.3151 107.382 44.3151C108.597 44.3151 109.543 43.8578 110.219 42.9463C110.897 42.0333 111.236 40.8297 111.236 39.334Z" fill="white"/>
<path d="M133.189 40.965C133.189 42.6347 132.595 43.9931 131.401 45.0419C130.089 46.1879 128.263 46.7602 125.917 46.7602C123.751 46.7602 122.014 46.3531 120.699 45.5375L121.447 42.9164C122.863 43.7512 124.416 44.1701 126.109 44.1701C127.324 44.1701 128.269 43.9017 128.949 43.3677C129.625 42.8338 129.962 42.1169 129.962 41.2231C129.962 40.4266 129.684 39.7555 129.126 39.2112C128.57 38.6669 127.643 38.161 126.348 37.6934C122.823 36.4116 121.062 34.534 121.062 32.0648C121.062 30.4512 121.68 29.1281 122.916 28.0985C124.147 27.0675 125.79 26.5527 127.844 26.5527C129.676 26.5527 131.198 26.864 132.413 27.4849L131.607 30.0485C130.472 29.4467 129.189 29.1458 127.754 29.1458C126.619 29.1458 125.732 29.4187 125.097 29.9615C124.56 30.4467 124.291 31.0382 124.291 31.7388C124.291 32.5147 124.598 33.1563 125.215 33.6608C125.752 34.1269 126.728 34.6313 128.144 35.1756C129.876 35.8556 131.148 36.6506 131.967 37.5621C132.782 38.4707 133.189 39.608 133.189 40.965Z" fill="white"/>
<path d="M143.853 34.6758H140.298V41.5478C140.298 43.2957 140.924 44.1689 142.179 44.1689C142.756 44.1689 143.234 44.1202 143.612 44.0229L143.701 46.4109C143.066 46.6425 142.229 46.759 141.193 46.759C139.919 46.759 138.924 46.3799 138.205 45.6232C137.49 44.8651 137.13 43.5936 137.13 41.8074V34.6728H135.012V32.3128H137.13V29.7213L140.298 28.7891V32.3128H143.853V34.6758Z" fill="white"/>
<path d="M159.895 39.276C159.895 41.4516 159.256 43.2378 157.983 44.6347C156.647 46.0728 154.874 46.7896 152.664 46.7896C150.533 46.7896 148.838 46.1008 147.573 44.7232C146.308 43.3455 145.676 41.6065 145.676 39.5105C145.676 37.3172 146.326 35.5206 147.632 34.1238C148.934 32.7255 150.692 32.0264 152.903 32.0264C155.033 32.0264 156.747 32.7152 158.04 34.0943C159.278 35.4321 159.895 37.1594 159.895 39.276ZM156.548 39.3778C156.548 38.0724 156.262 36.9529 155.683 36.0192C155.007 34.8893 154.04 34.3259 152.788 34.3259C151.491 34.3259 150.506 34.8908 149.83 36.0192C149.251 36.9543 148.965 38.0916 148.965 39.4368C148.965 40.7421 149.251 41.8617 149.83 42.7939C150.527 43.9237 151.502 44.4872 152.759 44.4872C153.99 44.4872 154.957 43.9119 155.654 42.7644C156.249 41.813 156.548 40.6817 156.548 39.3778Z" fill="white"/>
<path d="M170.376 35.0816C170.057 35.0241 169.717 34.9946 169.36 34.9946C168.225 34.9946 167.348 35.412 166.73 36.2483C166.193 36.9858 165.924 37.918 165.924 39.0434V46.4701H162.7L162.73 36.7734C162.73 35.1421 162.69 33.6567 162.609 32.3174H165.419L165.537 35.0255H165.626C165.966 34.0948 166.503 33.3455 167.239 32.7835C167.957 32.2776 168.733 32.0254 169.57 32.0254C169.868 32.0254 170.137 32.046 170.376 32.0829V35.0816Z" fill="white"/>
<path d="M184.8 38.7226C184.8 39.286 184.762 39.761 184.682 40.1489H175.006C175.044 41.5472 175.511 42.6166 176.41 43.3541C177.225 44.0134 178.28 44.3438 179.574 44.3438C181.007 44.3438 182.314 44.1211 183.49 43.6741L183.995 45.8571C182.621 46.4412 181 46.7318 179.128 46.7318C176.877 46.7318 175.11 46.0858 173.824 44.7951C172.541 43.5045 171.898 41.7714 171.898 39.5972C171.898 37.4629 172.496 35.6855 173.693 34.2681C174.945 32.7547 176.638 31.998 178.768 31.998C180.86 31.998 182.444 32.7547 183.52 34.2681C184.372 35.4702 184.8 36.957 184.8 38.7226ZM181.724 37.9069C181.745 36.9747 181.535 36.1693 181.098 35.4894C180.54 34.6147 179.682 34.1781 178.528 34.1781C177.473 34.1781 176.615 34.6044 175.96 35.4599C175.423 36.1398 175.104 36.9555 175.006 37.9054H181.724V37.9069Z" fill="white"/>
<path d="M74.2041 14.7641C74.2041 16.5001 73.6701 17.807 72.6036 18.6846C71.6157 19.4944 70.2118 19.9 68.3934 19.9C67.4917 19.9 66.7202 19.8617 66.0742 19.785V10.2992C66.9169 10.1665 67.8246 10.0986 68.8049 10.0986C70.537 10.0986 71.8426 10.4659 72.7231 11.2005C73.7094 12.0309 74.2041 13.2183 74.2041 14.7641ZM72.5325 14.8068C72.5325 13.6814 72.2269 12.8185 71.6157 12.2167C71.0045 11.6164 70.1119 11.3155 68.9365 11.3155C68.4372 11.3155 68.0121 11.348 67.6597 11.4158V18.6271C67.8548 18.6566 68.2118 18.6699 68.7307 18.6699C69.944 18.6699 70.8805 18.3409 71.54 17.6831C72.1996 17.0252 72.5325 16.0665 72.5325 14.8068Z" fill="white"/>
<path d="M83.0667 16.2804C83.0667 17.3498 82.7536 18.2259 82.1273 18.9132C81.4707 19.6198 80.6008 19.9723 79.5146 19.9723C78.4678 19.9723 77.6342 19.6345 77.0124 18.956C76.3922 18.279 76.082 17.425 76.082 16.3954C76.082 15.3187 76.4012 14.4352 77.0427 13.7493C77.6841 13.0634 78.5464 12.7197 79.6326 12.7197C80.6795 12.7197 81.5206 13.0575 82.1575 13.7345C82.7627 14.3924 83.0667 15.242 83.0667 16.2804ZM81.4223 16.3305C81.4223 15.6889 81.2801 15.1387 80.9972 14.68C80.6644 14.1254 80.1909 13.8481 79.5751 13.8481C78.9382 13.8481 78.4541 14.1254 78.1213 14.68C77.8369 15.1387 77.6962 15.6978 77.6962 16.3586C77.6962 17.0002 77.8384 17.5503 78.1213 18.0091C78.4647 18.5637 78.9428 18.841 79.56 18.841C80.1651 18.841 80.6402 18.5593 80.9821 17.9943C81.2755 17.5268 81.4223 16.9722 81.4223 16.3305Z" fill="white"/>
<path d="M94.9536 12.8613L92.7222 19.8145H91.2699L90.3456 16.7952C90.1111 16.0414 89.9205 15.2921 89.7722 14.5487H89.7435C89.6058 15.3128 89.4152 16.0606 89.1701 16.7952L88.1883 19.8145H86.7194L84.6211 12.8613H86.2504L87.0567 16.1668C87.2519 16.9486 87.4122 17.6934 87.5408 18.3985H87.5696C87.6876 17.8173 87.8827 17.0769 88.1581 16.1816L89.1701 12.8628H90.4621L91.4318 16.1108C91.6663 16.9028 91.8569 17.6654 92.0036 18.4H92.0475C92.1549 17.6846 92.3168 16.922 92.5316 16.1108L93.397 12.8628H94.9536V12.8613Z" fill="white"/>
<path d="M103.173 19.814H101.587V15.8315C101.587 14.6043 101.109 13.9907 100.15 13.9907C99.6797 13.9907 99.3 14.1589 99.005 14.4966C98.713 14.8344 98.5648 15.2327 98.5648 15.6884V19.8125H96.9794V14.8477C96.9794 14.237 96.9597 13.5748 96.9219 12.8579H98.3152L98.3893 13.945H98.4332C98.6177 13.6072 98.8931 13.3284 99.2546 13.1057C99.6843 12.8461 100.165 12.7148 100.692 12.7148C101.357 12.7148 101.911 12.9243 102.351 13.3447C102.899 13.8594 103.173 14.6279 103.173 15.6486V19.814Z" fill="white"/>
<path d="M107.545 19.8145H105.961V9.6709H107.545V19.8145Z" fill="white"/>
<path d="M116.879 16.2804C116.879 17.3498 116.566 18.2259 115.94 18.9132C115.283 19.6198 114.412 19.9723 113.327 19.9723C112.279 19.9723 111.445 19.6345 110.825 18.956C110.205 18.279 109.895 17.425 109.895 16.3954C109.895 15.3187 110.214 14.4352 110.855 13.7493C111.497 13.0634 112.359 12.7197 113.444 12.7197C114.492 12.7197 115.332 13.0575 115.97 13.7345C116.575 14.3924 116.879 15.242 116.879 16.2804ZM115.233 16.3305C115.233 15.6889 115.091 15.1387 114.808 14.68C114.477 14.1254 114.002 13.8481 113.388 13.8481C112.749 13.8481 112.265 14.1254 111.934 14.68C111.649 15.1387 111.509 15.6978 111.509 16.3586C111.509 17.0002 111.651 17.5503 111.934 18.0091C112.277 18.5637 112.755 18.841 113.373 18.841C113.978 18.841 114.451 18.5593 114.793 17.9943C115.088 17.5268 115.233 16.9722 115.233 16.3305Z" fill="white"/>
<path d="M124.55 19.8145H123.126L123.008 19.0136H122.964C122.477 19.6522 121.783 19.9723 120.881 19.9723C120.208 19.9723 119.664 19.7614 119.254 19.3425C118.881 18.9619 118.695 18.4885 118.695 17.9265C118.695 17.0769 119.058 16.4293 119.789 15.981C120.518 15.5326 121.544 15.3128 122.865 15.3231V15.1933C122.865 14.2773 122.371 13.8201 121.384 13.8201C120.68 13.8201 120.06 13.9927 119.524 14.3349L119.202 13.3201C119.865 12.9203 120.683 12.7197 121.648 12.7197C123.512 12.7197 124.447 13.6785 124.447 15.596V18.1566C124.447 18.8513 124.482 19.4044 124.55 19.8145ZM122.904 17.425V16.3527C121.155 16.3232 120.281 16.7907 120.281 17.7539C120.281 18.1168 120.381 18.3881 120.585 18.5696C120.789 18.751 121.049 18.841 121.359 18.841C121.707 18.841 122.033 18.7333 122.329 18.5194C122.627 18.3041 122.81 18.0312 122.878 17.6964C122.895 17.6212 122.904 17.5297 122.904 17.425Z" fill="white"/>
<path d="M133.562 19.8145H132.155L132.081 18.6979H132.037C131.587 19.5475 130.822 19.9723 129.746 19.9723C128.887 19.9723 128.171 19.6434 127.604 18.9855C127.037 18.3277 126.754 17.4736 126.754 16.4249C126.754 15.2995 127.061 14.3879 127.678 13.6917C128.276 13.0427 129.008 12.7182 129.879 12.7182C130.837 12.7182 131.507 13.0324 131.888 13.6622H131.919V9.6709H133.506V17.9412C133.506 18.6182 133.524 19.2422 133.562 19.8145ZM131.919 16.8822V15.7228C131.919 15.5222 131.904 15.36 131.875 15.2361C131.786 14.8644 131.593 14.5517 131.301 14.2994C131.006 14.0472 130.651 13.9204 130.241 13.9204C129.649 13.9204 129.187 14.149 128.846 14.6077C128.509 15.0664 128.338 15.652 128.338 16.3674C128.338 17.0547 128.5 17.6123 128.825 18.0415C129.168 18.4988 129.631 18.7274 130.211 18.7274C130.731 18.7274 131.147 18.5371 131.463 18.1551C131.769 17.8026 131.919 17.3778 131.919 16.8822Z" fill="white"/>
<path d="M147.118 16.2804C147.118 17.3498 146.804 18.2259 146.178 18.9132C145.521 19.6198 144.653 19.9723 143.565 19.9723C142.52 19.9723 141.686 19.6345 141.063 18.956C140.443 18.279 140.133 17.425 140.133 16.3954C140.133 15.3187 140.452 14.4352 141.093 13.7493C141.735 13.0634 142.597 12.7197 143.685 12.7197C144.73 12.7197 145.573 13.0575 146.208 13.7345C146.813 14.3924 147.118 15.242 147.118 16.2804ZM145.475 16.3305C145.475 15.6889 145.332 15.1387 145.049 14.68C144.715 14.1254 144.243 13.8481 143.626 13.8481C142.991 13.8481 142.506 14.1254 142.172 14.68C141.888 15.1387 141.747 15.6978 141.747 16.3586C141.747 17.0002 141.889 17.5503 142.172 18.0091C142.516 18.5637 142.994 18.841 143.611 18.841C144.216 18.841 144.692 18.5593 145.034 17.9943C145.326 17.5268 145.475 16.9722 145.475 16.3305Z" fill="white"/>
<path d="M155.644 19.814H154.06V15.8315C154.06 14.6043 153.582 13.9907 152.621 13.9907C152.151 13.9907 151.771 14.1589 151.478 14.4966C151.184 14.8344 151.037 15.2327 151.037 15.6884V19.8125H149.451V14.8477C149.451 14.237 149.432 13.5748 149.395 12.8579H150.786L150.86 13.945H150.904C151.09 13.6072 151.366 13.3284 151.726 13.1057C152.157 12.8461 152.637 12.7148 153.164 12.7148C153.829 12.7148 154.382 12.9243 154.823 13.3447C155.372 13.8594 155.644 14.6279 155.644 15.6486V19.814Z" fill="white"/>
<path d="M166.312 14.0194H164.566V17.3972C164.566 18.2556 164.876 18.6848 165.491 18.6848C165.775 18.6848 166.011 18.6612 166.197 18.6126L166.238 19.7852C165.925 19.9002 165.513 19.9578 165.006 19.9578C164.38 19.9578 163.893 19.7719 163.541 19.4002C163.187 19.0285 163.011 18.4031 163.011 17.5255V14.0194H161.969V12.8615H163.011V11.5871L164.565 11.1299V12.8601H166.311V14.0194H166.312Z" fill="white"/>
<path d="M174.705 19.8145H173.118V15.8615C173.118 14.6151 172.64 13.9912 171.683 13.9912C170.947 13.9912 170.445 14.3525 170.17 15.0753C170.123 15.2272 170.096 15.4131 170.096 15.6314V19.813H168.512V9.6709H170.096V13.8614H170.126C170.625 13.0988 171.341 12.7182 172.268 12.7182C172.925 12.7182 173.468 12.9277 173.899 13.3481C174.436 13.8717 174.705 14.6505 174.705 15.68V19.8145Z" fill="white"/>
<path d="M183.364 16.0086C183.364 16.2859 183.342 16.5189 183.305 16.7092H178.55C178.571 17.3966 178.798 17.9202 179.238 18.283C179.641 18.6075 180.16 18.7698 180.795 18.7698C181.498 18.7698 182.14 18.6606 182.718 18.4409L182.966 19.5147C182.29 19.8008 181.494 19.9439 180.573 19.9439C179.468 19.9439 178.598 19.6268 177.969 18.9925C177.337 18.3583 177.023 17.5072 177.023 16.4393C177.023 15.3906 177.315 14.5174 177.904 13.8212C178.518 13.0778 179.349 12.7061 180.397 12.7061C181.423 12.7061 182.202 13.0778 182.728 13.8212C183.153 14.4112 183.364 15.1413 183.364 16.0086ZM181.851 15.6089C181.863 15.1501 181.759 14.7548 181.544 14.4215C181.268 13.9923 180.849 13.7769 180.282 13.7769C179.765 13.7769 179.343 13.9864 179.02 14.4067C178.757 14.7416 178.601 15.1413 178.55 15.6089H181.851Z" fill="white"/>
</svg>
