<svg width="204" height="59" viewBox="0 0 204 59" fill="none" xmlns="http://www.w3.org/2000/svg">
<path d="M196.396 59H7.55371C3.40106 59 0 55.6794 0 51.625V7.375C0 3.32059 3.40106 7.56029e-07 7.55371 7.56029e-07H196.396C200.549 7.56029e-07 203.95 3.32059 203.95 7.375V51.625C203.95 55.6794 200.549 59 196.396 59Z" fill="black"/>
<path d="M71.6353 15.1096C71.6353 16.3413 71.2576 17.3277 70.5136 18.0633C69.6581 18.9354 68.5439 19.3742 67.1786 19.3742C65.8737 19.3742 64.7595 18.928 63.8455 18.0486C62.9297 17.1562 62.4727 16.061 62.4727 14.7501C62.4727 13.4392 62.9297 12.344 63.8455 11.459C64.7595 10.5722 65.8737 10.126 67.1786 10.126C67.8282 10.126 68.4476 10.2569 69.0387 10.5003C69.6279 10.7455 70.1076 11.0774 70.455 11.4867L69.6657 12.2647C69.0595 11.5659 68.2342 11.2212 67.1786 11.2212C66.2268 11.2212 65.4016 11.5457 64.701 12.2002C64.0079 12.8566 63.6605 13.7065 63.6605 14.7501C63.6605 15.7937 64.0079 16.651 64.701 17.3074C65.4016 17.9545 66.2268 18.2864 67.1786 18.2864C68.1889 18.2864 69.0387 17.9545 69.7091 17.3C70.151 16.8667 70.4022 16.2694 70.4683 15.506H67.1786V14.4404H71.5673C71.6202 14.6708 71.6353 14.8939 71.6353 15.1096Z" fill="white"/>
<path d="M78.5981 11.4151H74.4756V14.2176H78.1921V15.2833H74.4756V18.0858H78.5981V19.1717H73.3086V10.3291H78.5981V11.4151Z" fill="white"/>
<path d="M83.5121 19.1717H82.345V11.4151H79.8164V10.3291H86.0425V11.4151H83.5121V19.1717Z" fill="white"/>
<path d="M90.5469 19.1717V10.3291H91.712V19.1717H90.5469Z" fill="white"/>
<path d="M96.8792 19.1717H95.7216V11.4151H93.1836V10.3291H99.4173V11.4151H96.8792V19.1717Z" fill="white"/>
<path d="M111.205 18.0338C110.312 18.928 109.205 19.3742 107.885 19.3742C106.558 19.3742 105.451 18.928 104.558 18.0338C103.666 17.1414 103.223 16.0463 103.223 14.7501C103.223 13.4539 103.666 12.3588 104.558 11.4664C105.451 10.5722 106.558 10.126 107.885 10.126C109.198 10.126 110.304 10.5722 111.197 11.4738C112.096 12.3735 112.54 13.4613 112.54 14.7501C112.54 16.0463 112.096 17.1414 111.205 18.0338ZM105.421 17.2926C106.093 17.9545 106.911 18.2864 107.885 18.2864C108.852 18.2864 109.677 17.9545 110.342 17.2926C111.012 16.6307 111.352 15.7808 111.352 14.7501C111.352 13.7194 111.012 12.8695 110.342 12.2076C109.677 11.5457 108.852 11.2138 107.885 11.2138C106.911 11.2138 106.093 11.5457 105.421 12.2076C104.75 12.8695 104.41 13.7194 104.41 14.7501C104.41 15.7808 104.75 16.6307 105.421 17.2926Z" fill="white"/>
<path d="M114.176 19.1717V10.3291H115.592L119.996 17.2063H120.047L119.996 15.5063V10.3291H121.161V19.1717H119.945L115.333 11.9553H115.282L115.333 13.6626V19.1717H114.176Z" fill="white"/>
<path d="M102.934 32.0853C99.3852 32.0853 96.4864 34.7218 96.4864 38.3596C96.4864 41.9678 99.3852 44.632 102.934 44.632C106.489 44.632 109.388 41.9678 109.388 38.3596C109.388 34.7218 106.489 32.0853 102.934 32.0853ZM102.934 42.1614C100.987 42.1614 99.3115 40.5923 99.3115 38.3596C99.3115 36.0973 100.987 34.5559 102.934 34.5559C104.88 34.5559 106.563 36.0973 106.563 38.3596C106.563 40.5923 104.88 42.1614 102.934 42.1614ZM88.8666 32.0853C85.3107 32.0853 82.4195 34.7218 82.4195 38.3596C82.4195 41.9678 85.3107 44.632 88.8666 44.632C92.4206 44.632 95.3137 41.9678 95.3137 38.3596C95.3137 34.7218 92.4206 32.0853 88.8666 32.0853ZM88.8666 42.1614C86.9178 42.1614 85.2371 40.5923 85.2371 38.3596C85.2371 36.0973 86.9178 34.5559 88.8666 34.5559C90.8136 34.5559 92.4886 36.0973 92.4886 38.3596C92.4886 40.5923 90.8136 42.1614 88.8666 42.1614ZM72.1276 34.0083V36.6744H78.6484C78.4576 38.1641 77.9478 39.2593 77.1659 40.0226C76.2142 40.9445 74.7318 41.9678 72.1276 41.9678C68.1147 41.9678 64.9724 38.8057 64.9724 34.8878C64.9724 30.9698 68.1147 27.8078 72.1276 27.8078C74.2974 27.8078 75.8762 28.6356 77.0413 29.7087L78.9656 27.8299C77.3359 26.3107 75.168 25.1436 72.1276 25.1436C66.6248 25.1436 62 29.5151 62 34.8878C62 40.2605 66.6248 44.632 72.1276 44.632C75.1019 44.632 77.3359 43.6806 79.0921 41.8959C80.8918 40.1388 81.4527 37.6682 81.4527 35.6732C81.4527 35.0537 81.3998 34.484 81.3054 34.0083H72.1276ZM140.576 36.0752C140.045 34.6721 138.408 32.0853 135.073 32.0853C131.768 32.0853 129.016 34.6278 129.016 38.3596C129.016 41.8737 131.74 44.632 135.39 44.632C138.341 44.632 140.045 42.8749 140.745 41.8516L138.555 40.4264C137.824 41.47 136.829 42.1614 135.39 42.1614C133.96 42.1614 132.935 41.5216 132.278 40.2605L140.872 36.7887L140.576 36.0752ZM131.813 38.1641C131.74 35.7451 133.738 34.5061 135.169 34.5061C136.291 34.5061 137.242 35.0537 137.56 35.8373L131.813 38.1641ZM124.828 44.2503H127.653V25.8128H124.828V44.2503ZM120.201 33.4828H120.107C119.472 32.749 118.262 32.0853 116.728 32.0853C113.511 32.0853 110.568 34.8435 110.568 38.3798C110.568 41.8959 113.511 44.632 116.728 44.632C118.262 44.632 119.472 43.9627 120.107 43.2068H120.201V44.1065C120.201 46.5052 118.889 47.794 116.772 47.794C115.046 47.794 113.975 46.5771 113.533 45.5539L111.076 46.555C111.785 48.2181 113.66 50.2646 116.772 50.2646C120.084 50.2646 122.879 48.3619 122.879 43.7322V32.4669H120.201V33.4828ZM116.97 42.1614C115.023 42.1614 113.393 40.5702 113.393 38.3798C113.393 36.1692 115.023 34.5559 116.97 34.5559C118.889 34.5559 120.401 36.1692 120.401 38.3798C120.401 40.5702 118.889 42.1614 116.97 42.1614ZM153.802 25.8128H147.045V44.2503H149.863V37.2644H153.802C156.931 37.2644 160 35.0537 160 31.5377C160 28.0235 156.924 25.8128 153.802 25.8128ZM153.876 34.6997H149.863V28.3775H153.876C155.979 28.3775 157.18 30.083 157.18 31.5377C157.18 32.9647 155.979 34.6997 153.876 34.6997ZM171.293 32.0502C169.257 32.0502 167.14 32.9279 166.269 34.873L168.77 35.8963C169.308 34.873 170.297 34.5412 171.344 34.5412C172.805 34.5412 174.288 35.3985 174.31 36.9122V37.1058C173.8 36.8182 172.709 36.3923 171.366 36.3923C168.673 36.3923 165.929 37.8396 165.929 40.5407C165.929 43.0113 168.135 44.6025 170.615 44.6025C172.511 44.6025 173.557 43.7673 174.214 42.7956H174.31V44.2208H177.032V37.1482C177.032 33.8792 174.531 32.0502 171.293 32.0502ZM170.953 42.154C170.031 42.154 168.747 41.7078 168.747 40.5923C168.747 39.1653 170.348 38.6177 171.735 38.6177C172.975 38.6177 173.557 38.885 174.31 39.2372C174.089 40.9445 172.584 42.154 170.953 42.154ZM186.946 32.454L183.707 40.4467H183.611L180.263 32.454H177.224L182.255 43.6235L179.385 49.8387H182.329L190.081 32.454H186.946ZM161.548 44.2503H164.373V25.8128H161.548V44.2503Z" fill="white"/>
<path d="M15.7631 11.1197C15.3193 11.5732 15.0625 12.2794 15.0625 13.1939V45.8135C15.0625 46.728 15.3193 47.4342 15.7631 47.8877L15.8726 47.9873L34.5945 29.7157V29.2843L15.8726 11.0127L15.7631 11.1197Z" fill="url(#paint0_linear_22660_161959)"/>
<path d="M40.8314 35.8096L34.5977 29.716V29.2845L40.8389 23.1909L40.9786 23.2702L48.3699 27.3763C50.4793 28.5415 50.4793 30.459 48.3699 31.6316L40.9786 35.7303L40.8314 35.8096Z" fill="url(#paint1_linear_22660_161959)"/>
<path d="M40.978 35.7304L34.597 29.5004L15.7656 47.8881C16.4662 48.6071 17.6087 48.6938 18.908 47.9747L40.978 35.7304Z" fill="url(#paint2_linear_22660_161959)"/>
<path d="M40.978 23.27L18.908 11.0256C17.6087 10.3139 16.4662 10.4006 15.7656 11.1197L34.597 29.5L40.978 23.27Z" fill="url(#paint3_linear_22660_161959)"/>
<g clip-path="url(#clip0_22660_161959)">
<path d="M204 0V16H150.434C150.287 16 150.142 15.9922 150 15.9786L154.543 7.58324L150.287 0.00388585C150.335 0 150.381 0 150.426 0H204Z" fill="url(#paint4_linear_22660_161959)"/>
<path d="M167.811 3.95902C167.811 3.87902 167.851 3.83902 167.931 3.83902H169.383C169.463 3.83902 169.503 3.87902 169.503 3.95902V9.91102C169.503 10.151 169.547 10.319 169.635 10.415C169.731 10.503 169.879 10.547 170.079 10.547H170.403C170.563 10.547 170.683 10.607 170.763 10.727C170.843 10.839 170.883 11.031 170.883 11.303C170.883 11.591 170.843 11.779 170.763 11.867C170.691 11.955 170.571 11.999 170.403 11.999H169.215C168.711 11.999 168.351 11.879 168.135 11.639C167.919 11.391 167.811 11.007 167.811 10.487V3.95902ZM170.583 3.17102C170.503 3.17102 170.463 3.13102 170.463 3.05102V2.79902C170.463 2.71902 170.503 2.67902 170.583 2.67902H173.631C173.711 2.67902 173.751 2.71902 173.751 2.79902V3.05102C173.751 3.13102 173.711 3.17102 173.631 3.17102H170.583ZM170.583 3.99902C170.503 3.99902 170.463 3.95902 170.463 3.87902V3.63902C170.463 3.55902 170.503 3.51902 170.583 3.51902H173.631C173.711 3.51902 173.751 3.55902 173.751 3.63902V3.87902C173.751 3.95902 173.711 3.99902 173.631 3.99902H170.583ZM171.536 14.447C171.456 14.447 171.416 14.407 171.416 14.327V13.151C171.416 13.071 171.456 13.031 171.536 13.031H173.024C173.104 13.031 173.144 13.071 173.144 13.151V14.327C173.144 14.407 173.104 14.447 173.024 14.447H171.536ZM172.976 11.399C172.84 11.647 172.652 11.811 172.412 11.891C172.172 11.963 171.836 11.999 171.404 11.999H170.444C170.284 11.999 170.164 11.975 170.084 11.927C170.004 11.871 169.964 11.755 169.964 11.579C169.964 11.475 169.972 11.363 169.988 11.243C170.004 11.123 170.032 11.011 170.072 10.907C170.112 10.803 170.164 10.719 170.228 10.655C170.292 10.583 170.372 10.547 170.468 10.547H170.864C171.112 10.547 171.268 10.479 171.332 10.343C171.404 10.199 171.44 9.94702 171.44 9.58702V7.06702C171.44 7.00302 171.496 6.96702 171.608 6.95902C171.728 6.95102 171.832 6.94702 171.92 6.94702H173.024C173.104 6.94702 173.144 6.98702 173.144 7.06702V9.89902C173.16 10.099 173.244 10.259 173.396 10.379C173.556 10.491 173.776 10.547 174.056 10.547H174.332C174.492 10.547 174.612 10.603 174.692 10.715C174.772 10.827 174.812 11.011 174.812 11.267C174.812 11.755 174.652 11.999 174.332 11.999C174.028 11.999 173.764 11.963 173.54 11.891C173.316 11.819 173.128 11.655 172.976 11.399ZM174.286 11.999C174.126 11.999 174.006 11.951 173.926 11.855C173.846 11.751 173.806 11.571 173.806 11.315C173.806 10.803 173.966 10.547 174.286 10.547H175.03C175.23 10.547 175.374 10.503 175.462 10.415C175.558 10.319 175.606 10.151 175.606 9.91102V7.06702C175.606 6.98702 175.646 6.94702 175.726 6.94702H177.178C177.258 6.94702 177.298 6.98702 177.298 7.06702V10.487C177.298 11.007 177.19 11.391 176.974 11.639C176.758 11.879 176.398 11.999 175.894 11.999H174.286ZM174.73 14.459C174.65 14.459 174.61 14.419 174.61 14.339V13.163C174.61 13.083 174.65 13.043 174.73 13.043H175.93C176.01 13.043 176.05 13.083 176.05 13.163V14.339C176.05 14.419 176.01 14.459 175.93 14.459H174.73ZM176.578 14.459C176.498 14.459 176.458 14.419 176.458 14.339V13.163C176.458 13.083 176.498 13.043 176.578 13.043H177.79C177.87 13.043 177.91 13.083 177.91 13.163V14.339C177.91 14.419 177.87 14.459 177.79 14.459H176.578ZM179.439 7.06702C179.439 6.98702 179.479 6.94702 179.559 6.94702H181.023C181.103 6.94702 181.143 6.98702 181.143 7.06702V9.89902C181.159 10.099 181.243 10.259 181.395 10.379C181.555 10.491 181.775 10.547 182.055 10.547H182.319C182.479 10.547 182.599 10.603 182.679 10.715C182.759 10.827 182.799 11.011 182.799 11.267C182.799 11.755 182.639 11.999 182.319 11.999C182.055 11.999 181.827 11.975 181.635 11.927C181.443 11.871 181.279 11.759 181.143 11.591V11.783C181.143 12.695 180.967 13.367 180.615 13.799C180.263 14.239 179.663 14.459 178.815 14.459H178.263C178.183 14.459 178.143 14.419 178.143 14.339V13.127C178.143 13.047 178.183 13.007 178.263 13.007H178.527C178.743 13.007 178.911 12.971 179.031 12.899C179.151 12.835 179.239 12.735 179.295 12.599C179.359 12.471 179.399 12.311 179.415 12.119C179.431 11.927 179.439 11.707 179.439 11.459V7.06702ZM184.222 5.73502C184.142 5.73502 184.102 5.69502 184.102 5.61502V4.43902C184.102 4.35902 184.142 4.31902 184.222 4.31902H185.422C185.502 4.31902 185.542 4.35902 185.542 4.43902V5.61502C185.542 5.69502 185.502 5.73502 185.422 5.73502H184.222ZM186.07 5.73502C185.99 5.73502 185.95 5.69502 185.95 5.61502V4.43902C185.95 4.35902 185.99 4.31902 186.07 4.31902H187.282C187.362 4.31902 187.402 4.35902 187.402 4.43902V5.61502C187.402 5.69502 187.362 5.73502 187.282 5.73502H186.07ZM182.386 11.999C182.218 11.999 182.098 11.951 182.026 11.855C181.946 11.751 181.906 11.555 181.906 11.267C181.906 11.011 181.946 10.827 182.026 10.715C182.106 10.603 182.226 10.547 182.386 10.547H183.31C183.182 10.283 183.118 9.92302 183.118 9.46702C183.118 8.93902 183.19 8.50302 183.334 8.15902C183.486 7.80702 183.686 7.52702 183.934 7.31902C184.182 7.11102 184.466 6.96302 184.786 6.87502C185.106 6.78702 185.434 6.74302 185.77 6.74302C186.122 6.74302 186.458 6.78702 186.778 6.87502C187.098 6.96302 187.378 7.11102 187.618 7.31902C187.866 7.52702 188.062 7.80702 188.206 8.15902C188.35 8.50302 188.422 8.93902 188.422 9.46702C188.422 9.95502 188.354 10.363 188.218 10.691C188.082 11.011 187.894 11.271 187.654 11.471C187.422 11.663 187.142 11.799 186.814 11.879C186.494 11.959 186.146 11.999 185.77 11.999H182.386ZM185.77 8.19502C185.114 8.19502 184.786 8.58702 184.786 9.37102C184.786 9.83502 184.866 10.155 185.026 10.331C185.194 10.507 185.442 10.595 185.77 10.595C186.098 10.595 186.342 10.511 186.502 10.343C186.67 10.167 186.754 9.85502 186.754 9.40702C186.754 8.59902 186.426 8.19502 185.77 8.19502Z" fill="white"/>
</g>
<defs>
<linearGradient id="paint0_linear_22660_161959" x1="32.9322" y1="46.1532" x2="8.18527" y2="20.8066" gradientUnits="userSpaceOnUse">
<stop stop-color="#00A0FF"/>
<stop offset="0.0066" stop-color="#00A1FF"/>
<stop offset="0.2601" stop-color="#00BEFF"/>
<stop offset="0.5122" stop-color="#00D2FF"/>
<stop offset="0.7604" stop-color="#00DFFF"/>
<stop offset="1" stop-color="#00E3FF"/>
</linearGradient>
<linearGradient id="paint1_linear_22660_161959" x1="51.1167" y1="29.4982" x2="14.5615" y2="29.4982" gradientUnits="userSpaceOnUse">
<stop stop-color="#FFE000"/>
<stop offset="0.4087" stop-color="#FFBD00"/>
<stop offset="0.7754" stop-color="#FFA500"/>
<stop offset="1" stop-color="#FF9C00"/>
</linearGradient>
<linearGradient id="paint2_linear_22660_161959" x1="37.5082" y1="26.1136" x2="3.94934" y2="-8.25843" gradientUnits="userSpaceOnUse">
<stop stop-color="#FF3A44"/>
<stop offset="1" stop-color="#C31162"/>
</linearGradient>
<linearGradient id="paint3_linear_22660_161959" x1="11.0254" y1="58.7401" x2="26.0109" y2="43.3916" gradientUnits="userSpaceOnUse">
<stop stop-color="#32A071"/>
<stop offset="0.0685" stop-color="#2DA771"/>
<stop offset="0.4762" stop-color="#15CF74"/>
<stop offset="0.8009" stop-color="#06E775"/>
<stop offset="1" stop-color="#00F076"/>
</linearGradient>
<linearGradient id="paint4_linear_22660_161959" x1="204" y1="8.00097" x2="141.779" y2="8.00097" gradientUnits="userSpaceOnUse">
<stop stop-color="#9C142D"/>
<stop offset="0.09" stop-color="#B2263F"/>
<stop offset="0.22" stop-color="#CD3B54"/>
<stop offset="0.33" stop-color="#DD4861"/>
<stop offset="0.42" stop-color="#E34D66"/>
<stop offset="0.74" stop-color="#B23249"/>
<stop offset="0.92" stop-color="#B31836"/>
<stop offset="1" stop-color="#B50B2D"/>
</linearGradient>
<clipPath id="clip0_22660_161959">
<path d="M150 0H198C201.314 0 204 2.68629 204 6V16H150V0Z" fill="white"/>
</clipPath>
</defs>
</svg>
